<?xml version="1.0" standalone="no"?>
<!DOCTYPE svg PUBLIC "-//W3C//DTD SVG 20010904//EN"
 "http://www.w3.org/TR/2001/REC-SVG-20010904/DTD/svg10.dtd">
<svg version="1.0" xmlns="http://www.w3.org/2000/svg"
 width="1216.000000pt" height="1216.000000pt" viewBox="0 0 1216.000000 1216.000000"
 preserveAspectRatio="xMidYMid meet">
<metadata>
Created by potrace 1.14, written by Peter Selinger 2001-2017
</metadata>
<g transform="translate(0.000000,1216.000000) scale(0.100000,-0.100000)"
fill="#000000" stroke="none">
<path d="M515 10546 c-22 -7 -46 -11 -53 -8 -6 2 -12 -1 -12 -8 0 -6 -4 -9 -8
-6 -22 14 -236 -116 -264 -159 -3 -6 -18 -24 -32 -40 -34 -39 -38 -44 -56 -80
-8 -16 -18 -32 -21 -35 -4 -3 -19 -41 -34 -85 -24 -67 -28 -97 -28 -185 -1
-121 5 -190 16 -190 4 0 7 -7 7 -16 0 -20 62 -152 86 -183 56 -70 116 -127
173 -164 36 -23 67 -42 70 -43 3 0 24 -8 46 -18 22 -10 49 -20 60 -22 11 -2
31 -6 45 -9 14 -4 50 -8 80 -11 30 -2 60 -6 67 -9 7 -2 15 0 18 5 3 6 15 6 30
0 15 -6 27 -6 30 0 3 5 15 6 28 1 12 -5 32 -5 44 0 13 5 25 4 28 -1 3 -6 15
-6 30 0 15 6 27 6 30 -1 4 -5 11 -6 17 -3 6 4 32 7 58 7 26 0 52 -3 58 -7 6
-3 13 -2 17 3 3 7 15 7 30 1 15 -6 27 -6 30 0 3 6 15 6 30 0 15 -6 27 -6 30 0
3 6 15 6 30 0 15 -6 27 -6 30 0 3 6 15 6 30 0 15 -6 27 -6 30 0 3 6 15 6 30 0
15 -6 27 -6 30 0 3 6 15 6 30 0 15 -6 27 -6 30 0 3 6 15 6 30 0 15 -6 27 -6
30 0 3 6 15 6 30 0 15 -6 27 -6 30 1 4 5 11 7 16 4 14 -9 90 -12 95 -3 3 4 16
3 29 -2 15 -6 27 -6 30 0 3 5 15 6 28 1 12 -5 32 -5 44 0 13 5 25 4 28 -1 3
-6 15 -6 30 0 15 6 27 6 30 0 3 -5 16 -6 28 -2 12 4 37 6 55 4 17 -1 39 -2 47
-2 8 0 22 0 30 0 8 0 22 0 30 0 8 0 22 0 30 0 8 0 89 0 179 -1 90 -1 169 2
174 5 6 3 13 2 17 -3 3 -7 15 -7 30 -1 13 5 27 6 29 1 3 -4 26 -5 50 -1 25 4
51 3 58 -1 6 -4 19 -4 28 1 9 5 22 5 30 0 8 -5 21 -5 31 0 9 5 19 7 22 4 8 -8
333 -8 345 0 6 3 13 2 17 -3 3 -7 15 -7 29 -1 13 5 27 6 30 3 3 -3 24 -6 46
-6 22 0 43 3 46 6 3 3 17 2 30 -3 14 -6 26 -6 29 0 3 5 15 6 28 1 12 -5 32 -5
44 0 13 5 25 4 28 -1 3 -6 15 -6 30 0 15 6 27 6 30 -1 4 -5 11 -6 17 -3 6 4
32 7 58 7 26 0 52 -3 58 -7 6 -3 13 -2 17 3 3 7 15 7 30 1 15 -6 27 -6 30 0 3
6 15 6 30 0 15 -6 27 -6 30 0 3 6 15 6 30 0 15 -6 27 -6 30 0 3 6 15 6 30 0
15 -6 27 -6 30 0 3 6 15 6 30 0 15 -6 27 -6 30 0 3 6 15 6 30 0 15 -6 27 -6
30 0 3 6 15 6 30 0 15 -6 27 -6 30 0 3 6 15 6 30 0 15 -6 27 -6 30 1 4 5 11 7
16 4 14 -9 90 -12 95 -3 3 4 16 3 29 -2 15 -6 27 -6 30 0 3 5 15 6 28 1 12 -5
32 -5 44 0 13 5 25 4 28 -1 3 -6 15 -6 30 0 15 6 27 6 30 0 3 -5 16 -6 28 -2
12 4 37 6 55 4 17 -1 39 -2 47 -2 8 0 22 0 30 0 8 0 22 0 30 0 8 0 22 0 30 0
8 0 89 0 179 -1 90 -1 169 2 174 5 6 3 13 2 17 -3 3 -7 15 -7 30 -1 13 5 26 6
29 2 3 -5 30 -5 61 -2 31 3 58 3 61 -2 3 -4 15 -3 28 2 13 5 27 6 30 3 9 -9
76 -9 76 0 0 5 5 5 11 2 13 -9 297 -10 306 -2 3 4 14 2 24 -3 11 -7 20 -7 24
0 3 5 15 6 27 1 11 -4 40 -4 65 -1 24 4 46 3 49 -1 2 -5 15 -4 28 1 13 5 27 6
30 3 9 -9 76 -9 76 0 0 5 5 5 11 2 13 -9 297 -10 306 -2 3 4 14 2 24 -3 11 -7
20 -7 24 0 3 5 15 6 27 1 11 -4 40 -4 65 -1 24 4 46 3 49 -1 2 -5 15 -4 28 1
13 5 27 6 30 3 9 -9 76 -9 76 0 0 5 5 5 11 2 13 -9 297 -10 306 -2 3 4 14 2
24 -3 11 -7 20 -7 24 0 3 5 15 6 27 1 11 -4 40 -4 65 -1 24 4 46 3 49 -1 2 -5
15 -4 28 1 13 5 27 6 30 3 9 -9 76 -9 76 0 0 5 5 5 11 2 13 -9 297 -10 306 -2
3 4 14 2 24 -3 12 -7 20 -7 24 0 4 6 11 8 16 5 14 -9 90 -12 95 -3 3 4 16 3
29 -2 15 -6 27 -6 30 0 3 5 15 6 28 1 12 -5 32 -5 44 0 13 5 25 4 28 -1 3 -6
15 -6 30 0 15 6 27 6 30 -1 4 -5 11 -6 17 -3 14 9 102 9 116 0 6 -3 13 -2 17
3 3 7 15 7 30 1 15 -6 27 -6 30 0 3 6 15 6 30 0 15 -6 27 -6 30 0 3 6 15 6 30
0 15 -6 27 -6 30 0 3 6 15 6 29 0 13 -5 26 -7 28 -4 3 2 32 6 64 9 54 4 192
41 204 54 3 3 27 17 54 31 53 27 186 146 186 167 0 7 4 13 9 13 5 0 21 24 36
54 15 30 29 57 33 61 4 4 7 10 8 13 0 4 8 32 18 62 36 110 25 324 -20 411 -8
16 -14 31 -14 34 2 11 -54 105 -62 105 -4 0 -8 6 -8 13 0 19 -107 118 -173
160 -31 20 -59 37 -62 37 -2 0 -16 5 -32 11 -15 6 -28 9 -29 7 0 -2 -8 3 -17
11 -10 7 -17 11 -17 8 0 -3 -21 0 -47 8 -41 13 -588 15 -3973 14 -3127 0
-3933 -3 -3965 -13z"/>
<path d="M718 6725 c-2 -2 -39 -5 -83 -6 -44 -1 -93 -6 -110 -11 -16 -4 -43
-11 -60 -13 -42 -7 -184 -79 -222 -112 -17 -16 -39 -35 -50 -44 -10 -9 -29
-30 -43 -48 -14 -17 -29 -37 -35 -44 -5 -7 -17 -25 -25 -42 -8 -16 -18 -32
-21 -35 -4 -3 -19 -41 -34 -85 -24 -67 -28 -97 -28 -185 -1 -121 5 -190 16
-190 4 0 7 -8 7 -17 0 -24 79 -183 90 -183 6 0 10 -6 10 -13 0 -27 191 -188
230 -193 3 0 22 -8 44 -17 21 -9 49 -19 62 -21 13 -3 27 -7 31 -9 5 -3 37 -8
73 -12 36 -4 66 -8 68 -10 2 -1 19 1 38 5 19 4 36 4 39 0 3 -4 21 -4 40 0 19
4 37 4 40 0 3 -4 20 -4 39 0 19 4 40 4 46 0 7 -4 24 -5 39 -1 26 7 85 5 109
-4 6 -2 12 -1 12 4 0 5 18 5 40 1 22 -4 40 -4 40 0 0 4 20 4 45 0 25 -4 45 -4
45 -1 0 3 24 5 52 4 29 -1 64 -2 78 -2 14 0 41 -1 60 -2 19 0 41 -1 48 0 21 2
39 2 121 0 44 0 84 2 90 5 5 4 12 2 15 -3 3 -5 21 -5 41 -1 19 4 37 4 40 0 3
-4 21 -4 40 0 19 4 37 4 40 0 3 -4 20 -5 37 -1 33 7 92 5 116 -4 6 -2 12 -1
12 3 0 8 109 6 117 -1 2 -3 17 -2 31 2 15 5 36 5 47 1 11 -4 31 -4 45 0 14 4
34 4 45 0 11 -4 29 -4 40 0 11 4 29 4 40 0 11 -4 31 -4 45 0 14 4 33 4 43 1
10 -4 42 -4 71 -1 29 3 66 3 84 -1 18 -4 32 -4 32 0 0 3 24 5 52 3 29 -1 67
-2 83 -2 17 1 37 1 45 1 8 -1 29 -1 45 0 17 0 36 0 43 0 6 0 23 -1 37 -1 14 0
33 0 43 0 9 0 31 0 47 1 17 0 37 0 45 0 114 -3 171 -1 179 3 5 4 12 2 15 -3 3
-5 21 -5 41 -1 19 4 37 4 40 0 3 -4 20 -4 39 0 19 4 40 4 46 0 7 -4 24 -5 39
-1 26 7 85 5 109 -4 6 -2 12 -1 12 4 0 5 18 5 40 1 22 -4 40 -4 40 0 0 4 20 4
45 0 25 -4 45 -4 45 -1 0 3 24 5 52 4 29 -1 64 -2 78 -2 14 0 41 -1 60 -2 19
0 41 -1 48 0 21 2 39 2 121 0 44 0 84 2 90 5 5 4 12 2 15 -3 3 -5 21 -5 41 -1
19 4 37 4 40 0 3 -4 21 -4 40 0 19 4 37 4 40 0 3 -4 20 -5 37 -1 33 7 92 5
116 -4 6 -2 12 -1 12 3 0 4 24 6 52 4 29 -1 67 -2 83 -2 17 1 37 1 45 1 8 -1
29 -1 45 0 17 0 36 0 43 0 6 0 23 -1 37 -1 14 0 33 0 43 0 9 0 31 0 47 1 17 0
37 0 45 0 114 -3 171 -1 179 3 5 4 12 2 15 -3 3 -5 21 -5 41 -1 19 4 37 4 40
0 3 -4 20 -4 39 0 19 4 40 4 46 0 7 -4 24 -5 39 -1 26 7 85 5 109 -4 6 -2 12
-1 12 4 0 5 18 5 40 1 22 -4 40 -4 40 0 0 4 20 4 45 0 25 -4 45 -4 45 -1 0 3
24 5 52 4 29 -1 64 -2 78 -2 14 0 41 -1 60 -2 19 0 41 -1 48 0 21 2 39 2 121
0 44 0 84 2 90 5 5 4 12 2 15 -3 3 -5 21 -5 41 -1 19 4 37 4 40 0 3 -4 21 -4
40 0 19 4 37 4 40 0 3 -4 21 -4 40 0 19 4 37 4 40 0 3 -4 21 -4 40 0 19 4 37
4 40 0 3 -4 21 -4 40 0 19 4 37 4 40 0 3 -4 20 -4 39 0 19 4 40 4 46 0 7 -4
24 -5 39 -1 26 7 85 5 109 -4 6 -2 12 -1 12 4 0 5 18 5 40 1 22 -4 40 -4 40 0
0 4 20 4 45 0 25 -4 45 -4 45 -1 0 3 24 5 52 4 29 -1 64 -2 78 -2 14 0 41 -1
60 -2 19 0 41 -1 48 0 21 2 39 2 121 0 44 0 84 2 90 5 5 4 12 2 15 -3 3 -5 21
-5 41 -1 19 4 37 4 40 0 3 -4 21 -4 40 0 19 4 37 4 40 0 3 -4 20 -5 38 -1 18
5 41 6 52 5 20 -3 51 -5 90 -4 11 0 44 0 73 0 29 0 57 2 62 5 6 3 10 2 10 -3
0 -5 19 -6 43 -3 23 4 59 4 80 0 21 -3 40 -3 42 1 3 4 22 4 42 1 21 -4 55 -4
76 0 21 3 40 3 42 -1 3 -4 22 -4 42 -1 21 4 52 4 70 0 17 -3 37 -3 43 1 6 4
26 4 43 1 18 -4 51 -4 75 -1 23 4 42 4 42 0 0 -4 19 -4 43 -1 23 4 59 4 80 0
21 -3 40 -3 42 1 3 4 22 4 42 1 21 -4 55 -4 76 0 21 3 40 3 42 -1 2 -4 24 -4
47 0 24 3 58 3 76 -1 17 -3 32 -4 32 0 0 3 24 5 52 3 29 -1 67 -2 83 -2 17 1
37 1 45 1 8 -1 29 -1 45 0 17 0 36 0 43 0 6 0 23 -1 37 -1 14 0 33 0 43 0 9 0
31 0 47 1 17 0 37 0 45 0 114 -3 171 -1 179 3 5 4 12 2 15 -3 3 -5 21 -5 41
-1 19 4 37 4 40 0 3 -4 20 -4 39 0 19 4 40 4 46 0 7 -4 24 -5 39 -1 26 7 85 5
109 -4 6 -2 12 -1 12 4 0 5 18 5 40 1 22 -4 40 -4 40 0 0 4 20 4 45 0 25 -4
45 -4 45 -1 0 3 24 5 52 4 29 -1 64 -2 78 -2 14 0 41 -1 60 -2 19 0 41 -1 48
0 21 2 39 2 121 0 44 0 84 2 90 5 5 4 12 2 15 -3 3 -5 21 -5 41 -1 19 4 37 4
40 0 3 -4 21 -4 40 0 19 4 37 4 40 -1 3 -4 11 -6 18 -4 23 9 82 11 115 4 17
-4 32 -4 32 0 0 3 24 5 52 3 29 -1 67 -2 83 -2 17 1 37 1 45 1 8 -1 29 -1 45
0 17 0 36 0 43 0 6 0 23 -1 37 -1 14 0 33 0 43 0 9 0 31 0 47 1 17 0 37 0 45
0 117 -4 226 4 280 20 25 7 47 13 50 14 3 0 15 6 28 13 12 7 22 10 22 7 0 -3
18 6 40 20 22 14 42 25 45 25 3 0 11 4 18 10 51 42 91 77 99 85 57 66 74 91
108 160 22 44 42 94 45 110 2 17 9 45 15 64 9 33 7 204 -3 246 -47 190 -172
350 -338 434 -46 24 -86 43 -89 42 -3 0 -23 4 -45 10 -34 10 -181 22 -222 20
-21 -2 -45 -2 -101 -1 -29 0 -57 -2 -62 -5 -6 -3 -10 -2 -10 3 0 5 -19 6 -42
3 -24 -4 -60 -4 -81 0 -21 3 -40 3 -42 -1 -3 -4 -22 -4 -42 -1 -21 4 -55 4
-75 1 -21 -4 -40 -4 -43 -2 -7 7 -123 4 -135 -3 -5 -3 -11 -1 -14 4 -3 5 -21
5 -41 1 -19 -4 -37 -4 -40 0 -3 4 -20 4 -39 0 -19 -4 -40 -4 -46 0 -7 4 -24 5
-39 1 -26 -7 -85 -5 -108 4 -7 2 -13 1 -13 -4 0 -5 -18 -5 -40 -1 -22 4 -40 4
-40 0 0 -4 -20 -4 -45 0 -25 4 -45 4 -45 1 0 -3 -24 -5 -52 -4 -29 1 -64 2
-78 2 -14 0 -41 1 -60 2 -19 0 -41 1 -47 0 -22 -2 -40 -2 -122 0 -44 0 -84 -2
-90 -5 -5 -4 -12 -2 -15 3 -3 5 -21 5 -41 1 -19 -4 -37 -4 -40 0 -3 4 -20 4
-39 0 -19 -4 -40 -4 -46 0 -7 4 -24 4 -39 0 -14 -4 -35 -6 -46 -4 -20 3 -51 5
-90 4 -11 0 -44 0 -73 0 -29 0 -57 -2 -62 -5 -6 -3 -10 -2 -10 3 0 5 -19 6
-42 3 -24 -4 -60 -4 -81 0 -21 3 -40 3 -42 -1 -3 -4 -22 -4 -42 -1 -21 4 -55
4 -75 1 -21 -4 -40 -4 -43 -2 -7 7 -123 4 -135 -3 -5 -3 -11 -1 -14 4 -3 5
-21 5 -41 1 -19 -4 -37 -4 -40 0 -3 4 -20 4 -39 0 -19 -4 -40 -4 -46 0 -7 4
-24 5 -39 1 -26 -7 -85 -5 -108 4 -7 2 -13 1 -13 -4 0 -5 -18 -5 -40 -1 -22 4
-40 4 -40 0 0 -4 -20 -4 -45 0 -25 4 -45 4 -45 1 0 -3 -24 -5 -52 -4 -29 1
-64 2 -78 2 -14 0 -41 1 -60 2 -19 0 -41 1 -47 0 -22 -2 -40 -2 -122 0 -44 0
-84 -2 -90 -5 -5 -4 -12 -2 -15 3 -3 5 -21 5 -41 1 -19 -4 -37 -4 -40 0 -3 4
-20 4 -39 0 -19 -4 -40 -4 -46 0 -7 4 -24 4 -39 0 -14 -4 -35 -6 -46 -4 -20 3
-51 5 -90 4 -11 0 -44 0 -73 0 -29 0 -57 -2 -62 -5 -6 -3 -10 -2 -10 3 0 5
-19 6 -42 3 -24 -4 -60 -4 -81 0 -21 3 -40 3 -42 -1 -3 -4 -22 -4 -42 -1 -21
4 -55 4 -75 1 -21 -4 -40 -4 -43 -2 -7 7 -123 4 -135 -3 -5 -3 -11 -1 -14 4
-3 5 -21 5 -41 1 -19 -4 -37 -4 -40 0 -3 4 -20 4 -39 0 -19 -4 -40 -4 -46 0
-7 4 -24 5 -39 1 -26 -7 -85 -5 -108 4 -7 2 -13 1 -13 -4 0 -5 -18 -5 -40 -1
-22 4 -40 4 -40 0 0 -4 -20 -4 -45 0 -25 4 -45 4 -45 1 0 -3 -24 -5 -52 -4
-29 1 -64 2 -78 2 -14 0 -41 1 -60 2 -19 0 -41 1 -47 0 -22 -2 -40 -2 -122 0
-44 0 -84 -2 -90 -5 -5 -4 -12 -2 -15 3 -3 5 -21 5 -41 1 -19 -4 -37 -4 -40 0
-3 4 -20 4 -39 0 -19 -4 -40 -4 -46 0 -7 4 -24 4 -39 0 -14 -4 -35 -6 -46 -4
-20 3 -51 5 -90 4 -11 0 -44 0 -73 0 -29 0 -57 -2 -62 -5 -6 -3 -10 -2 -10 3
0 5 -19 6 -42 3 -24 -4 -60 -4 -81 0 -21 3 -40 3 -42 -1 -3 -4 -22 -4 -42 -1
-21 4 -55 4 -76 0 -21 -3 -40 -3 -42 1 -2 4 -24 4 -47 0 -24 -3 -58 -3 -75 1
-18 3 -33 4 -33 0 0 -7 -110 -5 -117 2 -2 3 -17 2 -31 -2 -15 -5 -36 -5 -47
-1 -11 4 -31 4 -45 0 -14 -4 -34 -4 -45 0 -11 4 -29 4 -40 0 -11 -4 -29 -4
-40 0 -11 4 -31 4 -45 0 -14 -4 -33 -4 -43 -1 -10 4 -42 4 -71 1 -29 -3 -66
-3 -84 1 -18 4 -32 4 -32 0 0 -7 -110 -5 -117 2 -2 3 -17 2 -31 -2 -15 -5 -36
-5 -47 -1 -11 4 -31 4 -45 0 -14 -4 -34 -4 -45 0 -11 4 -29 4 -40 0 -11 -4
-29 -4 -40 0 -11 4 -31 4 -45 0 -14 -4 -33 -4 -43 -1 -10 4 -42 4 -71 1 -29
-3 -66 -3 -84 1 -18 4 -32 4 -32 0 0 -7 -110 -5 -117 2 -2 3 -17 2 -31 -2 -15
-5 -36 -5 -47 -1 -11 4 -31 4 -45 0 -14 -4 -34 -4 -45 0 -11 4 -29 4 -40 0
-11 -4 -29 -4 -40 0 -11 4 -31 4 -45 0 -14 -4 -33 -4 -43 -1 -10 4 -42 4 -71
1 -29 -3 -66 -3 -84 1 -18 4 -32 4 -32 0 0 -7 -110 -5 -117 2 -2 3 -17 2 -31
-2 -15 -5 -36 -5 -47 -1 -11 4 -31 4 -45 0 -14 -4 -34 -4 -45 0 -11 4 -29 4
-40 0 -11 -4 -29 -4 -40 0 -11 4 -31 4 -45 0 -14 -4 -33 -4 -43 -1 -10 4 -42
4 -71 1 -29 -3 -66 -3 -84 1 -18 4 -32 4 -32 0 0 -7 -110 -5 -117 2 -2 3 -17
2 -31 -2 -15 -5 -36 -5 -47 -1 -11 4 -31 4 -45 0 -14 -4 -34 -4 -45 0 -11 4
-29 4 -40 0 -11 -4 -29 -4 -40 0 -11 4 -31 4 -45 0 -14 -4 -33 -4 -43 -1 -10
4 -42 4 -71 1 -29 -3 -66 -3 -84 1 -18 4 -32 4 -32 0 0 -7 -110 -5 -117 2 -2
3 -17 2 -31 -2 -15 -5 -36 -5 -47 -1 -11 4 -31 4 -45 0 -14 -4 -34 -4 -45 0
-11 4 -29 4 -40 0 -11 -4 -29 -4 -40 0 -11 4 -31 4 -45 0 -14 -4 -33 -4 -43
-1 -10 4 -42 4 -71 1 -29 -3 -66 -3 -84 1 -18 4 -32 4 -32 0 0 -7 -110 -5
-117 2 -2 3 -17 2 -31 -2 -15 -5 -36 -5 -47 -1 -11 4 -31 4 -45 0 -14 -4 -34
-4 -45 0 -11 4 -29 4 -40 0 -11 -4 -29 -4 -40 0 -11 4 -31 4 -45 0 -14 -4 -35
-4 -47 1 -11 4 -23 6 -25 4z"/>
<path d="M679 2885 c-3 -2 -39 -6 -81 -9 -42 -2 -80 -6 -85 -9 -5 -3 -25 -9
-44 -12 -57 -9 -190 -81 -249 -133 -54 -48 -144 -161 -142 -178 0 -5 -5 -16
-12 -24 -7 -8 -24 -49 -37 -90 -19 -59 -24 -96 -23 -175 0 -119 6 -185 17
-185 4 0 7 -7 7 -16 0 -20 62 -151 86 -184 56 -73 155 -158 232 -197 45 -24
82 -40 82 -37 0 4 7 1 15 -6 8 -7 15 -10 15 -7 0 3 21 0 48 -8 41 -13 624 -14
4312 -12 l4265 2 64 23 c227 80 382 248 435 472 13 56 14 221 1 275 -4 17 -8
35 -9 40 -6 32 -55 137 -84 180 -42 61 -132 155 -149 155 -7 0 -13 4 -13 8 0
8 -73 53 -87 53 -5 0 -15 7 -23 14 -8 7 -19 14 -25 15 -5 0 -28 6 -50 12 -22
6 -47 13 -55 15 -15 4 -175 15 -197 14 -7 -1 -20 -1 -28 -1 -8 0 -22 0 -30 0
-8 0 -22 0 -30 0 -8 0 -89 0 -179 1 -90 1 -169 -2 -174 -5 -6 -3 -13 -2 -17 3
-3 7 -15 7 -30 1 -13 -5 -27 -6 -29 -1 -3 4 -26 5 -50 1 -25 -4 -51 -3 -58 1
-6 4 -19 4 -28 -1 -9 -5 -22 -5 -30 0 -8 5 -21 5 -31 0 -9 -5 -19 -7 -22 -4
-8 8 -333 8 -345 0 -6 -3 -13 -2 -17 3 -3 7 -15 7 -30 1 -13 -5 -26 -6 -29 -2
-3 5 -30 5 -61 2 -31 -3 -58 -3 -61 2 -3 4 -15 3 -28 -2 -13 -5 -27 -6 -30 -3
-9 9 -76 9 -76 0 0 -5 -5 -5 -11 -2 -13 9 -297 10 -306 2 -3 -4 -14 -2 -24 3
-12 7 -20 7 -24 0 -4 -6 -11 -8 -16 -5 -14 9 -90 12 -95 3 -3 -4 -16 -3 -29 2
-15 6 -27 6 -30 0 -3 -5 -15 -6 -28 -1 -12 5 -32 5 -44 0 -13 -5 -25 -4 -28 1
-3 6 -15 6 -30 0 -15 -6 -27 -6 -30 1 -4 5 -11 6 -17 3 -14 -9 -102 -9 -116 0
-6 3 -13 2 -17 -3 -3 -7 -15 -7 -30 -1 -15 6 -27 6 -30 0 -3 -6 -15 -6 -30 0
-15 6 -27 6 -30 0 -3 -6 -15 -6 -30 0 -15 6 -27 6 -30 0 -3 -6 -15 -6 -30 0
-15 6 -27 6 -30 0 -3 -6 -15 -6 -30 0 -15 6 -27 6 -30 0 -3 -6 -15 -6 -30 0
-15 6 -27 6 -30 0 -3 -6 -15 -6 -30 0 -15 6 -27 6 -30 0 -3 -6 -15 -6 -30 0
-15 6 -27 6 -30 -1 -4 -5 -11 -7 -16 -4 -14 9 -90 12 -95 3 -3 -4 -16 -3 -29
2 -15 6 -27 6 -30 0 -3 -5 -15 -6 -28 -1 -12 5 -32 5 -44 0 -13 -5 -25 -4 -28
1 -3 6 -15 6 -30 0 -15 -6 -27 -6 -30 1 -4 5 -11 7 -16 3 -13 -8 -107 -9 -115
-1 -3 3 -16 2 -29 -3 -13 -5 -26 -6 -29 -3 -9 9 -76 9 -76 0 0 -5 -5 -5 -11
-2 -13 9 -297 10 -306 2 -3 -4 -14 -2 -24 3 -11 7 -20 7 -24 0 -3 -5 -15 -6
-27 -1 -12 4 -36 5 -54 1 -18 -4 -38 -4 -45 1 -7 4 -20 4 -29 -1 -9 -5 -22 -5
-30 0 -8 5 -21 5 -31 0 -9 -5 -19 -7 -22 -4 -8 8 -333 8 -345 0 -6 -3 -13 -2
-17 3 -3 7 -15 7 -30 1 -13 -5 -27 -6 -29 -1 -3 4 -26 5 -50 1 -25 -4 -51 -3
-58 1 -6 4 -19 4 -28 -1 -9 -5 -22 -5 -30 0 -8 5 -21 5 -31 0 -9 -5 -19 -7
-22 -4 -8 8 -333 8 -345 0 -6 -3 -13 -2 -17 3 -3 7 -15 7 -30 1 -13 -5 -26 -6
-29 -2 -3 5 -30 5 -61 2 -31 -3 -58 -3 -61 2 -3 4 -15 3 -28 -2 -13 -5 -27 -6
-30 -3 -9 9 -76 9 -76 0 0 -5 -5 -5 -11 -2 -13 9 -297 10 -306 2 -3 -4 -14 -2
-24 3 -12 7 -20 7 -24 0 -4 -6 -11 -8 -16 -5 -14 9 -90 12 -95 3 -3 -4 -16 -3
-29 2 -15 6 -27 6 -30 0 -3 -5 -15 -6 -28 -1 -12 5 -32 5 -44 0 -13 -5 -25 -4
-28 1 -3 6 -15 6 -30 0 -15 -6 -27 -6 -30 1 -4 5 -11 6 -17 3 -6 -4 -32 -7
-58 -7 -26 0 -52 3 -58 7 -6 3 -13 2 -17 -3 -3 -7 -15 -7 -30 -1 -15 6 -27 6
-30 0 -3 -6 -15 -6 -30 0 -15 6 -27 6 -30 0 -3 -6 -15 -6 -30 0 -15 6 -27 6
-30 0 -3 -6 -15 -6 -30 0 -15 6 -27 6 -30 0 -3 -6 -15 -6 -30 0 -15 6 -27 6
-30 0 -3 -6 -15 -6 -30 0 -15 6 -27 6 -30 0 -3 -6 -15 -6 -30 0 -15 6 -27 6
-30 0 -3 -6 -15 -6 -30 0 -15 6 -27 6 -30 -1 -4 -5 -11 -7 -16 -4 -14 9 -90
12 -95 3 -3 -4 -16 -3 -29 2 -15 6 -27 6 -30 0 -3 -5 -15 -6 -28 -1 -12 5 -32
5 -44 0 -13 -5 -25 -4 -28 1 -3 6 -15 6 -30 0 -15 -6 -27 -6 -30 1 -4 5 -11 7
-16 3 -13 -8 -107 -9 -115 -1 -3 3 -16 2 -29 -3 -13 -5 -26 -6 -29 -3 -9 9
-76 9 -76 0 0 -5 -5 -5 -11 -2 -13 9 -297 10 -306 2 -3 -4 -14 -2 -24 3 -11 7
-20 7 -24 0 -3 -5 -15 -6 -27 -1 -12 4 -36 5 -54 1 -18 -4 -38 -4 -45 1 -7 4
-20 4 -29 -1 -9 -5 -22 -5 -30 0 -8 5 -21 5 -31 0 -9 -5 -19 -7 -22 -4 -8 8
-333 8 -345 0 -6 -3 -13 -2 -17 3 -3 6 -15 7 -29 1 -14 -5 -27 -5 -33 1 -5 5
-12 7 -14 4z"/>
</g>
</svg>
